<svg xmlns="http://www.w3.org/2000/svg" x="0px" y="0px"
width="50" height="50"
viewBox="0 0 50 50">
<path d="M 24.849609 10 C 11.077609 10 10 11.077609 10 24.849609 L 10 25.150391 C 10 38.922391 11.077609 40 24.849609 40 L 25.150391 40 C 38.922391 40 40 38.922391 40 25.150391 L 40 24.849609 C 40 11.077609 38.922391 10 25.150391 10 L 24.849609 10 z M 33.496094 15 C 34.325094 14.998 34.998 15.667094 35 16.496094 C 35.002 17.325094 34.332906 17.998 33.503906 18 C 32.674906 18.002 32.002 17.332906 32 16.503906 C 31.998 15.674906 32.667094 15.002 33.496094 15 z M 24.980469 17 C 29.398469 16.99 32.989 20.562469 33 24.980469 C 33.01 29.398469 29.437531 32.989 25.019531 33 C 20.601531 33.011 17.011 29.437531 17 25.019531 C 16.99 20.601531 20.562469 17.011 24.980469 17 z M 24.982422 18 C 21.116422 18.009 17.991 21.151578 18 25.017578 C 18.009 28.883578 21.151578 32.009 25.017578 32 C 28.883578 31.991 32.009 28.848422 32 24.982422 C 31.991 21.116422 28.848422 17.991 24.982422 18 z"></path>
</svg>